<svg xmlns="http://www.w3.org/2000/svg" xmlns:xlink="http://www.w3.org/1999/xlink" width="500" zoomAndPan="magnify" viewBox="0 0 375 149.999998" height="200" preserveAspectRatio="xMidYMid meet" version="1.0"><defs><g/><clipPath id="b410c3bfd9"><path d="M 195 43.046875 L 355.953125 43.046875 L 355.953125 106.941406 L 195 106.941406 Z M 195 43.046875 " clip-rule="nonzero"/></clipPath><clipPath id="dde9fc1c35"><path d="M 236.59375 43.046875 L 351.695312 43.046875 C 352.964844 43.046875 354.136719 43.730469 354.765625 44.832031 C 355.390625 45.933594 355.378906 47.285156 354.734375 48.378906 L 323.210938 101.613281 C 321.253906 104.917969 317.699219 106.941406 313.859375 106.941406 L 198.753906 106.941406 C 197.488281 106.941406 196.316406 106.261719 195.6875 105.160156 C 195.058594 104.058594 195.070312 102.703125 195.71875 101.613281 L 227.242188 48.378906 C 229.199219 45.074219 232.753906 43.046875 236.59375 43.046875 Z M 236.59375 43.046875 " clip-rule="nonzero"/></clipPath></defs><g clip-path="url(#b410c3bfd9)"><g clip-path="url(#dde9fc1c35)"><path fill="#ffffff" d="M 192.5625 43.046875 L 357.890625 43.046875 L 357.890625 106.941406 L 192.5625 106.941406 Z M 192.5625 43.046875 " fill-opacity="1" fill-rule="nonzero"/></g></g><g fill="#ffffff" fill-opacity="1"><g transform="translate(15.000002, 96.18889)"><g><path d="M 38.53125 0 L 28.953125 0 L 28.953125 -14.640625 L 13.34375 -14.640625 L 13.34375 0 L 3.765625 0 L 3.765625 -37.671875 L 13.34375 -37.671875 L 13.34375 -22.171875 L 28.953125 -22.171875 L 28.953125 -37.671875 L 38.53125 -37.671875 Z M 38.53125 0 "/></g></g></g><g fill="#ffffff" fill-opacity="1"><g transform="translate(54.225524, 96.18889)"><g><path d="M 16.734375 -29.4375 C 20.710938 -29.4375 23.804688 -28.507812 26.015625 -26.65625 C 28.222656 -24.8125 29.34375 -22.238281 29.375 -18.9375 L 29.375 0 L 20.28125 0 L 20.28125 -3.34375 C 18.382812 -0.820312 15.425781 0.4375 11.40625 0.4375 C 8.351562 0.4375 5.929688 -0.40625 4.140625 -2.09375 C 2.347656 -3.78125 1.453125 -5.96875 1.453125 -8.65625 C 1.453125 -11.425781 2.410156 -13.570312 4.328125 -15.09375 C 6.242188 -16.613281 9 -17.394531 12.59375 -17.4375 L 20.234375 -17.4375 L 20.234375 -17.859375 C 20.234375 -19.296875 19.753906 -20.414062 18.796875 -21.21875 C 17.847656 -22.03125 16.441406 -22.4375 14.578125 -22.4375 C 11.960938 -22.4375 9.078125 -21.628906 5.921875 -20.015625 L 3.28125 -26.15625 C 7.976562 -28.34375 12.460938 -29.4375 16.734375 -29.4375 Z M 14.265625 -5.859375 C 15.734375 -5.859375 17.019531 -6.226562 18.125 -6.96875 C 19.238281 -7.707031 19.941406 -8.664062 20.234375 -9.84375 L 20.234375 -12.4375 L 14.375 -12.4375 C 11.570312 -12.4375 10.171875 -11.394531 10.171875 -9.3125 C 10.171875 -8.226562 10.53125 -7.378906 11.25 -6.765625 C 11.96875 -6.160156 12.972656 -5.859375 14.265625 -5.859375 Z M 14.265625 -5.859375 "/></g></g></g><g fill="#ffffff" fill-opacity="1"><g transform="translate(83.442818, 96.18889)"><g><path d="M 22.703125 -29.4375 C 25.898438 -29.4375 28.46875 -28.421875 30.40625 -26.390625 C 32.34375 -24.367188 33.3125 -21.671875 33.3125 -18.296875 L 33.3125 0 L 24.046875 0 L 24.046875 -15.71875 C 24.046875 -17.40625 23.585938 -18.738281 22.671875 -19.71875 C 21.765625 -20.707031 20.519531 -21.203125 18.9375 -21.203125 C 17.289062 -21.203125 15.9375 -20.660156 14.875 -19.578125 C 13.820312 -18.503906 13.203125 -17.09375 13.015625 -15.34375 L 13.015625 0 L 3.71875 0 L 3.71875 -29 L 13.015625 -29 L 13.015625 -24.265625 C 15.066406 -27.640625 18.296875 -29.363281 22.703125 -29.4375 Z M 22.703125 -29.4375 "/></g></g></g><g fill="#ffffff" fill-opacity="1"><g transform="translate(116.58807, 96.18889)"><g><path d="M 17.171875 -29.328125 C 21.898438 -29.328125 25.71875 -27.972656 28.625 -25.265625 C 31.53125 -22.554688 32.984375 -18.976562 32.984375 -14.53125 C 32.984375 -10.082031 31.53125 -6.492188 28.625 -3.765625 C 25.71875 -1.035156 21.898438 0.328125 17.171875 0.328125 C 12.398438 0.328125 8.5625 -1.035156 5.65625 -3.765625 C 2.75 -6.492188 1.296875 -10.082031 1.296875 -14.53125 C 1.296875 -18.976562 2.75 -22.554688 5.65625 -25.265625 C 8.5625 -27.972656 12.398438 -29.328125 17.171875 -29.328125 Z M 17.171875 -21.953125 C 15.234375 -21.953125 13.660156 -21.253906 12.453125 -19.859375 C 11.253906 -18.460938 10.65625 -16.648438 10.65625 -14.421875 C 10.65625 -12.160156 11.253906 -10.335938 12.453125 -8.953125 C 13.660156 -7.578125 15.234375 -6.890625 17.171875 -6.890625 C 19.066406 -6.890625 20.613281 -7.578125 21.8125 -8.953125 C 23.019531 -10.335938 23.625 -12.160156 23.625 -14.421875 C 23.625 -16.648438 23.019531 -18.460938 21.8125 -19.859375 C 20.613281 -21.253906 19.066406 -21.953125 17.171875 -21.953125 Z M 17.171875 -21.953125 "/></g></g></g><g fill="#ffffff" fill-opacity="1"><g transform="translate(147.796246, 96.18889)"><g><path d="M 20.609375 -8.015625 L 22.4375 -1.5625 C 20.175781 -0.226562 17.59375 0.4375 14.6875 0.4375 C 11.820312 0.4375 9.5 -0.359375 7.71875 -1.953125 C 5.945312 -3.554688 5.0625 -5.828125 5.0625 -8.765625 L 5.0625 -21.578125 L 1.015625 -21.578125 L 1.015625 -27.65625 L 5.0625 -27.65625 L 5.0625 -35.734375 L 14.3125 -35.734375 L 14.3125 -27.71875 L 21.90625 -27.71875 L 21.90625 -21.578125 L 14.3125 -21.578125 L 14.3125 -10.21875 C 14.3125 -9.113281 14.535156 -8.300781 14.984375 -7.78125 C 15.429688 -7.257812 16.101562 -7.015625 17 -7.046875 C 17.863281 -7.046875 19.066406 -7.367188 20.609375 -8.015625 Z M 20.609375 -8.015625 "/></g></g></g><g fill="#ffffff" fill-opacity="1"><g transform="translate(168.135264, 96.18889)"><g><path d="M 31.59375 -29 L 19.046875 3.015625 C 16.898438 8.253906 13.171875 10.875 7.859375 10.875 C 4.773438 10.875 1.957031 9.882812 -0.59375 7.90625 L 3.28125 1.5625 C 4.570312 2.601562 5.847656 3.125 7.109375 3.125 C 8.753906 3.125 9.953125 2.351562 10.703125 0.8125 L 11.40625 -0.640625 L -0.640625 -29 L 8.9375 -29 L 16.03125 -9.734375 L 22.328125 -29 Z M 31.59375 -29 "/></g></g></g><g fill="#5271ff" fill-opacity="1"><g transform="translate(225.158368, 96.18889)"><g><path d="M 13.34375 0 L 3.765625 0 L 3.765625 -37.671875 L 13.34375 -37.671875 Z M 13.34375 0 "/></g></g></g><g fill="#5271ff" fill-opacity="1"><g transform="translate(239.201878, 96.18889)"><g><path d="M 38.53125 0 L 30.078125 0 L 12.75 -23.1875 L 12.75 0 L 3.765625 0 L 3.765625 -37.671875 L 12.21875 -37.671875 L 29.59375 -14.421875 L 29.59375 -37.671875 L 38.53125 -37.671875 Z M 38.53125 0 "/></g></g></g><g fill="#5271ff" fill-opacity="1"><g transform="translate(278.427399, 96.18889)"><g><path d="M 21.625 -37.984375 C 27.476562 -37.984375 32.34375 -36.160156 36.21875 -32.515625 C 40.09375 -28.878906 42.03125 -24.335938 42.03125 -18.890625 C 42.03125 -13.398438 40.082031 -8.804688 36.1875 -5.109375 C 32.289062 -1.410156 27.4375 0.4375 21.625 0.4375 C 15.820312 0.4375 10.984375 -1.398438 7.109375 -5.078125 C 3.234375 -8.753906 1.296875 -13.359375 1.296875 -18.890625 C 1.296875 -24.378906 3.234375 -28.929688 7.109375 -32.546875 C 10.984375 -36.171875 15.820312 -37.984375 21.625 -37.984375 Z M 21.734375 -29.96875 C 18.796875 -29.96875 16.285156 -28.898438 14.203125 -26.765625 C 12.117188 -24.628906 11.078125 -21.984375 11.078125 -18.828125 C 11.078125 -15.671875 12.125 -13.007812 14.21875 -10.84375 C 16.320312 -8.675781 18.828125 -7.59375 21.734375 -7.59375 C 24.640625 -7.59375 27.109375 -8.675781 29.140625 -10.84375 C 31.171875 -13.007812 32.1875 -15.671875 32.1875 -18.828125 C 32.1875 -21.984375 31.171875 -24.628906 29.140625 -26.765625 C 27.109375 -28.898438 24.640625 -29.96875 21.734375 -29.96875 Z M 21.734375 -29.96875 "/></g></g></g></svg>